# OBJ written from D:\_Prace\3D_Aparat_fotograficzny_Exakta_Varex\mo\export\lens_enlarge.obj
# Units	meters

o lens_glass
v 6.56473 -22.7041 14.765
v 7.37906 -21.3667 12.6113
v 6.7338 -21.4883 12.402
v 6.07061 -21.6712 12.361
v 5.43468 -21.9028 12.491
v 4.86934 -22.1674 12.7831
v 4.41314 -22.4469 13.2175
v 4.09715 -22.7223 13.7645
v 3.94291 -22.9749 14.3869
v 3.96094 -23.1873 15.0423
v 4.15 -23.3452 15.6859
v 4.4972 -23.4378 16.274
v 4.9789 -23.4587 16.7664
v 5.56225 -23.4065 17.1297
v 6.20752 -23.2849 17.3389
v 6.87071 -23.102 17.38
v 7.50664 -22.8704 17.25
v 8.07197 -22.6058 16.9578
v 8.52818 -22.3263 16.5235
v 8.84416 -22.0509 15.9764
v 8.9984 -21.7983 15.354
v 8.98038 -21.5859 14.6987
v 8.79132 -21.428 14.055
v 8.44411 -21.3355 13.4669
v 7.96242 -21.3145 12.9745
v 7.94974 -19.4854 10.8154
v 6.70319 -19.7204 10.4112
v 5.422 -20.0736 10.3319
v 4.19347 -20.5211 10.583
v 3.10134 -21.0322 11.1473
v 2.22002 -21.5722 11.9865
v 1.60958 -22.1043 13.0433
v 1.31161 -22.5922 14.2457
v 1.34643 -23.0026 15.5117
v 1.71166 -23.3076 16.7552
v 2.38241 -23.4864 17.8913
v 3.31298 -23.5268 18.8425
v 4.43993 -23.4261 19.5442
v 5.68648 -23.1911 19.9485
v 6.96768 -22.8378 20.0278
v 8.1962 -22.3904 19.7767
v 9.28834 -21.8792 19.2123
v 10.1697 -21.3392 18.3731
v 10.7801 -20.8071 17.3163
v 11.0781 -20.3193 16.114
v 11.0432 -19.9088 14.8479
v 10.678 -19.6038 13.6045
v 10.0073 -19.425 12.4684
v 9.0767 -19.3846 11.5171
v 8.23788 -17.1884 9.49974
v 6.475 -17.5207 8.92803
v 4.66311 -18.0203 8.81591
v 2.92572 -18.6531 9.17101
v 1.3812 -19.376 9.96915
v 0.134832 -20.1397 11.1559
v -0.728466 -20.8921 12.6504
v -1.14985 -21.5821 14.3509
v -1.1006 -22.1625 16.1413
v -0.584091 -22.5938 17.8998
v 0.364493 -22.8467 19.5065
v 1.68051 -22.9038 20.8518
v 3.27426 -22.7614 21.8441
v 5.03715 -22.429 22.4158
v 6.84903 -21.9295 22.528
v 8.58643 -21.2967 22.1729
v 10.1309 -20.5738 21.3747
v 11.3773 -19.8101 20.188
v 12.2406 -19.0576 18.6934
v 12.662 -18.3677 16.993
v 12.6128 -17.7873 15.2025
v 12.0962 -17.3559 13.4441
v 11.1477 -17.1031 11.8374
v 9.83164 -17.0459 10.4921
v 8.22385 -14.6323 8.7539
v 6.06476 -15.0393 8.0537
v 3.84567 -15.6512 7.91638
v 1.7178 -16.4262 8.35129
v -0.173837 -17.3115 9.3288
v -1.70032 -18.2469 10.7823
v -2.75764 -19.1684 12.6127
v -3.27373 -20.0134 14.6953
v -3.21342 -20.7243 16.8882
v -2.58082 -21.2526 19.0419
v -1.41904 -21.5623 21.0096
v 0.192737 -21.6322 22.6573
v 2.14468 -21.4578 23.8726
v 4.30377 -21.0507 24.5728
v 6.52286 -20.4389 24.7102
v 8.65073 -19.6639 24.2752
v 10.5424 -18.7785 23.2977
v 12.0689 -17.8432 21.8442
v 13.1262 -16.9216 20.0138
v 13.6423 -16.0766 17.9312
v 13.5819 -15.3658 15.7384
v 12.9493 -14.8375 13.5847
v 11.7876 -14.5278 11.6169
v 10.1758 -14.4578 9.96925
v 7.90859 -11.9912 8.62873
v 5.50044 -12.4452 7.84776
v 3.02537 -13.1277 7.6946
v 0.65204 -13.9921 8.17968
v -1.4578 -14.9796 9.26995
v -3.16038 -16.0228 10.8911
v -4.33966 -17.0506 12.9327
v -4.91529 -17.9931 15.2555
v -4.84802 -18.786 17.7013
v -4.14245 -19.3752 20.1035
v -2.84665 -19.7206 22.2982
v -1.04895 -19.7987 24.1359
v 1.12816 -19.6041 25.4915
v 3.53631 -19.1501 26.2725
v 6.01139 -18.4676 26.4256
v 8.38472 -17.6032 25.9405
v 10.4946 -16.6158 24.8503
v 12.1971 -15.5726 23.2291
v 13.3764 -14.5447 21.1876
v 13.952 -13.6022 18.8647
v 13.8848 -12.8093 16.4189
v 13.1792 -12.2201 14.0168
v 11.8834 -11.8747 11.822
v 10.0857 -11.7967 9.98429
v 7.3136 -9.44525 9.13277
v 4.8205 -9.91526 8.32425
v 2.25812 -10.6218 8.16569
v -0.198936 -11.5167 8.66788
v -2.38321 -12.539 9.79661
v -4.14584 -13.619 11.475
v -5.36672 -14.6831 13.5885
v -5.96265 -15.6589 15.9933
v -5.89301 -16.4797 18.5254
v -5.16255 -17.0897 21.0123
v -3.82105 -17.4473 23.2844
v -1.95993 -17.5281 25.187
v 0.293987 -17.3267 26.5904
v 2.78708 -16.8566 27.3989
v 5.34947 -16.1501 27.5575
v 7.80652 -15.2552 27.0553
v 9.99079 -14.2329 25.9265
v 11.7534 -13.1529 24.2482
v 12.9743 -12.0888 22.1346
v 13.5702 -11.1131 19.7298
v 13.5006 -10.2922 17.1977
v 12.7701 -9.68221 14.7109
v 11.4286 -9.32461 12.4387
v 9.56751 -9.24379 10.5361
v 6.47942 -7.16781 10.2317
v 4.07128 -7.6218 9.45069
v 1.5962 -8.30426 9.29753
v -0.777127 -9.16867 9.78261
v -2.88698 -10.1561 10.8729
v -4.58955 -11.1993 12.494
v -5.76883 -12.2272 14.5356
v -6.34446 -13.1697 16.8584
v -6.27719 -13.9626 19.3043
v -5.57162 -14.5518 21.7064
v -4.27582 -14.8972 23.9011
v -2.47812 -14.9753 25.7389
v -0.301002 -14.7807 27.0944
v 2.10715 -14.3267 27.8754
v 4.58222 -13.6442 28.0285
v 6.95555 -12.7798 27.5435
v 9.06539 -11.7923 26.4532
v 10.768 -10.7491 24.832
v 11.9473 -9.72126 22.7905
v 12.5229 -8.77878 20.4676
v 12.4556 -7.98591 18.0218
v 11.75 -7.3967 15.6197
v 10.4542 -7.05128 13.425
v 8.65654 -6.97321 11.5872
v 5.46291 -5.31412 11.8505
v 3.30382 -5.72116 11.1503
v 1.08473 -6.33303 11.013
v -1.04314 -7.10804 11.4479
v -2.93478 -7.99337 12.4254
v -4.46126 -8.92869 13.8789
v -5.51858 -9.85025 15.7093
v -6.03467 -10.6953 17.7919
v -5.97436 -11.4061 19.9848
v -5.34176 -11.9344 22.1385
v -4.17998 -12.2441 24.1062
v -2.5682 -12.3141 25.7539
v -0.616258 -12.1396 26.9693
v 1.54283 -11.7326 27.6694
v 3.76192 -11.1207 27.8068
v 5.88979 -10.3457 27.3719
v 7.78142 -9.46037 26.3943
v 9.30791 -8.52505 24.9409
v 10.3652 -7.60349 23.1104
v 10.8813 -6.75848 21.0278
v 10.821 -6.04761 18.835
v 10.1884 -5.51934 16.6813
v 9.02663 -5.20965 14.7136
v 7.41485 -5.13965 13.0659
v 4.33332 -4.01051 13.879
v 2.57044 -4.34286 13.3073
v 0.758559 -4.84246 13.1952
v -0.97884 -5.47525 13.5503
v -2.52336 -6.19812 14.3484
v -3.76973 -6.9618 15.5352
v -4.63302 -7.71426 17.0297
v -5.05441 -8.4042 18.7302
v -5.00516 -8.98462 20.5206
v -4.48865 -9.41596 22.2791
v -3.54006 -9.66882 23.8857
v -2.22405 -9.72596 25.2311
v -0.630295 -9.58352 26.2234
v 1.13259 -9.25117 26.7951
v 2.94447 -8.75158 26.9072
v 4.68187 -8.11878 26.5521
v 6.22638 -7.39591 25.754
v 7.47276 -6.63223 24.5672
v 8.33605 -5.87977 23.0727
v 8.75744 -5.18983 21.3723
v 8.7082 -4.60941 19.5818
v 8.19168 -4.17807 17.8233
v 7.24309 -3.92521 16.2167
v 5.92708 -3.86807 14.8713
v 3.16765 -3.34583 16.1789
v 1.92111 -3.58084 15.7747
v 0.639912 -3.9341 15.6954
v -0.588613 -4.38155 15.9465
v -1.68075 -4.8927 16.5108
v -2.56207 -5.43271 17.35
v -3.17251 -5.96477 18.4068
v -3.47048 -6.45264 19.6092
v -3.43565 -6.86305 20.8752
v -3.07042 -7.16806 22.1187
v -2.39967 -7.34685 23.2548
v -1.46911 -7.38727 24.206
v -0.342153 -7.28654 24.9077
v 0.904394 -7.05153 25.312
v 2.18559 -6.69827 25.3913
v 3.41412 -6.25081 25.1402
v 4.50625 -5.73967 24.5758
v 5.38757 -5.19967 23.7366
v 5.99801 -4.6676 22.6798
v 6.29598 -4.17973 21.4775
v 6.26116 -3.76932 20.2114
v 5.89592 -3.46431 18.968
v 5.22517 -3.28552 17.8319
v 4.29461 -3.2451 16.8806
v 2.04534 -3.36537 18.5935
v 1.40008 -3.48702 18.3842
v 0.736881 -3.66988 18.3432
v 0.100951 -3.90149 18.4732
v -0.464381 -4.16608 18.7653
v -0.920586 -4.44561 19.1997
v -1.23657 -4.72103 19.7467
v -1.39081 -4.97357 20.3691
v -1.37279 -5.18601 21.0245
v -1.18373 -5.3439 21.6681
v -0.83652 -5.43645 22.2562
v -0.354831 -5.45737 22.7486
v 0.228524 -5.40523 23.1119
v 0.873788 -5.28358 23.3211
v 1.53698 -5.10072 23.3622
v 2.17292 -4.8691 23.2322
v 2.73824 -4.60451 22.94
v 3.19445 -4.32498 22.5057
v 3.51044 -4.04956 21.9586
v 3.66467 -3.79702 21.3362
v 3.64665 -3.58458 20.6809
v 3.45759 -3.4267 20.0372
v 3.11039 -3.33414 19.4491
v 2.62869 -3.31323 18.9567
v 1.04286 -4.06779 20.9582
vn 0.357506 -0.798118 -0.524973
vn 0.276094 -0.931816 -0.309661
vn 0.292999 -0.810279 -0.545893
vn 0.226695 -0.828561 -0.549996
vn 0.163121 -0.851716 -0.537002
vn 0.106605 -0.878167 -0.507797
vn 0.060996 -0.906113 -0.46437
vn 0.0294059 -0.933646 -0.409683
vn 0.0139855 -0.958895 -0.347456
vn 0.0157881 -0.980134 -0.281936
vn 0.0346893 -0.995917 -0.21759
vn 0.0693999 -1.00517 -0.1588
vn 0.117555 -1.00726 -0.109571
vn 0.175875 -1.00205 -0.07326
vn 0.240382 -0.989887 -0.0523394
vn 0.306684 -0.971606 -0.0482362
vn 0.370262 -0.94845 -0.0612314
vn 0.426782 -0.921997 -0.0904378
vn 0.472388 -0.894053 -0.133863
vn 0.503977 -0.866519 -0.188552
vn 0.519397 -0.841272 -0.250774
vn 0.517595 -0.820033 -0.316291
vn 0.498696 -0.804249 -0.380638
vn 0.463984 -0.794997 -0.439431
vn 0.415826 -0.792905 -0.488662
vn 0.414575 -0.610043 -0.704539
vn 0.289946 -0.633539 -0.744956
vn 0.161855 -0.668857 -0.752883
vn 0.0390309 -0.713594 -0.727778
vn -0.0701602 -0.764696 -0.671354
vn -0.158274 -0.818686 -0.587455
vn -0.219304 -0.87188 -0.481799
vn -0.249093 -0.920656 -0.361588
vn -0.245612 -0.961689 -0.23501
vn -0.209097 -0.992182 -0.110694
vn -0.142036 -1.01006 0.00288885
vn -0.0490008 -1.0141 0.097996
vn 0.0636692 -1.00403 0.168149
vn 0.188298 -0.980533 0.208566
vn 0.316387 -0.945214 0.216493
vn 0.439215 -0.900478 0.191389
vn 0.548405 -0.849374 0.134964
vn 0.636516 -0.795387 0.0510667
vn 0.697547 -0.742191 -0.0545899
vn 0.727337 -0.693415 -0.174802
vn 0.723856 -0.652383 -0.301379
vn 0.687341 -0.621889 -0.425695
vn 0.620281 -0.604013 -0.539277
vn 0.527245 -0.599972 -0.634386
vn 0.443402 -0.380381 -0.836125
vn 0.267138 -0.413611 -0.893288
vn 0.0859772 -0.463563 -0.904498
vn -0.0877375 -0.526833 -0.868993
vn -0.242167 -0.59911 -0.789191
vn -0.366786 -0.675466 -0.670532
vn -0.453102 -0.750701 -0.521102
vn -0.495234 -0.819685 -0.351083
vn -0.490311 -0.877719 -0.172062
vn -0.438667 -0.920846 0.00376014
vn -0.343823 -0.946128 0.164401
vn -0.212241 -0.951842 0.298915
vn -0.0528881 -0.937599 0.398133
vn 0.123375 -0.90437 0.455296
vn 0.304536 -0.854418 0.466506
vn 0.478251 -0.791147 0.431001
vn 0.63268 -0.718871 0.351199
vn 0.757298 -0.642514 0.23254
vn 0.843615 -0.567279 0.0831091
vn 0.885747 -0.498296 -0.0869099
vn 0.880824 -0.440262 -0.26593
vn 0.82918 -0.397135 -0.441751
vn 0.734335 -0.371853 -0.602393
vn 0.602753 -0.366138 -0.736907
vn 0.442014 -0.12476 -0.910746
vn 0.22612 -0.165461 -0.980761
vn 0.00422736 -0.226645 -0.994492
vn -0.208544 -0.304139 -0.951004
vn -0.397694 -0.392666 -0.85326
vn -0.550332 -0.486191 -0.707922
vn -0.656055 -0.57834 -0.524894
vn -0.707661 -0.662834 -0.316649
vn -0.70163 -0.733916 -0.0973782
vn -0.638375 -0.78674 0.117975
vn -0.522205 -0.817706 0.314734
vn -0.36104 -0.824706 0.47949
vn -0.16586 -0.80726 0.601017
vn 0.050034 -0.766559 0.671032
vn 0.271927 -0.705376 0.684763
vn 0.484699 -0.62788 0.641275
vn 0.673848 -0.539354 0.543531
vn 0.826486 -0.445829 0.398193
vn 0.93221 -0.35368 0.215165
vn 0.983815 -0.269186 0.00691952
vn 0.977784 -0.198104 -0.212351
vn 0.914529 -0.145281 -0.427704
vn 0.79836 -0.114313 -0.624463
vn 0.637194 -0.107314 -0.78922
vn 0.410493 0.139399 -0.92329
vn 0.169683 0.0939999 -1.00138
vn -0.0778201 0.0257554 -1.0167
vn -0.315149 -0.0606847 -0.968193
vn -0.526129 -0.159428 -0.859169
vn -0.696383 -0.263747 -0.697057
vn -0.81431 -0.366532 -0.492904
vn -0.87187 -0.460779 -0.260624
vn -0.865144 -0.540064 -0.0160473
vn -0.794588 -0.598985 0.224161
vn -0.665011 -0.633525 0.443628
vn -0.485244 -0.641333 0.6274
vn -0.267537 -0.621872 0.762954
vn -0.0267264 -0.576475 0.841049
vn 0.220776 -0.508229 0.856365
vn 0.458104 -0.421791 0.807857
vn 0.669084 -0.323046 0.698833
vn 0.839339 -0.218728 0.53672
vn 0.957265 -0.115942 0.332568
vn 1.01483 -0.0216959 0.100288
vn 1.0081 0.0575893 -0.144289
vn 0.937544 0.11651 -0.384497
vn 0.807966 0.151051 -0.603965
vn 0.6282 0.158857 -0.787737
vn 0.350981 0.394071 -0.872881
vn 0.101671 0.34707 -0.953732
vn -0.154568 0.276417 -0.969589
vn -0.400273 0.186926 -0.919369
vn -0.6187 0.0846963 -0.806497
vn -0.794964 -0.0233049 -0.638662
vn -0.917052 -0.129717 -0.427304
vn -0.976644 -0.227291 -0.186827
vn -0.969681 -0.309375 0.0663837
vn -0.896635 -0.370375 0.31507
vn -0.762484 -0.406135 0.542284
vn -0.576371 -0.414216 0.732544
vn -0.35098 -0.394071 0.872881
vn -0.101671 -0.34707 0.953732
vn 0.154568 -0.276417 0.969589
vn 0.400272 -0.186926 0.91937
vn 0.6187 -0.0846965 0.806497
vn 0.794964 0.0233038 0.638662
vn 0.917052 0.129717 0.427304
vn 0.976645 0.22729 0.186826
vn 0.969681 0.309374 -0.0663842
vn 0.896635 0.370374 -0.31507
vn 0.762484 0.406134 -0.542285
vn 0.576372 0.414216 -0.732544
vn 0.267537 0.621872 -0.762954
vn 0.0267269 0.576474 -0.841049
vn -0.220776 0.50823 -0.856365
vn -0.458104 0.421791 -0.807858
vn -0.669084 0.323046 -0.698833
vn -0.839339 0.218727 -0.53672
vn -0.957265 0.115942 -0.332569
vn -1.01483 0.0216958 -0.10029
vn -1.0081 -0.0575895 0.144289
vn -0.937543 -0.116509 0.384497
vn -0.807967 -0.151051 0.603965
vn -0.6282 -0.158856 0.787737
vn -0.410492 -0.139399 0.92329
vn -0.169682 -0.0939993 1.00139
vn 0.0778205 -0.0257558 1.0167
vn 0.315149 0.0606843 0.968193
vn 0.526129 0.159428 0.859169
vn 0.696383 0.263747 0.697057
vn 0.814309 0.366532 0.492904
vn 0.871871 0.460778 0.260624
vn 0.865144 0.540064 0.0160471
vn 0.794588 0.598984 -0.224161
vn 0.665011 0.633525 -0.443628
vn 0.485244 0.641331 -0.627401
vn 0.165859 0.80726 -0.601017
vn -0.0500343 0.766559 -0.671032
vn -0.271927 0.705377 -0.684763
vn -0.484698 0.627881 -0.641275
vn -0.673848 0.539354 -0.543531
vn -0.826486 0.445829 -0.398192
vn -0.93221 0.353679 -0.215165
vn -0.983814 0.269186 -0.00691921
vn -0.977784 0.198104 0.212352
vn -0.914529 0.145281 0.427704
vn -0.79836 0.114314 0.624463
vn -0.637194 0.107315 0.78922
vn -0.442014 0.12476 0.910746
vn -0.22612 0.165461 0.980761
vn -0.00422773 0.226644 0.994492
vn 0.208544 0.304139 0.951004
vn 0.397694 0.392665 0.85326
vn 0.550331 0.486191 0.707922
vn 0.656055 0.57834 0.524894
vn 0.70766 0.662835 0.316649
vn 0.70163 0.733916 0.0973782
vn 0.638375 0.78674 -0.117974
vn 0.522205 0.817706 -0.314734
vn 0.361039 0.824706 -0.47949
vn 0.0528887 0.937599 -0.398133
vn -0.123375 0.904369 -0.455296
vn -0.304537 0.854417 -0.466507
vn -0.47825 0.791148 -0.431002
vn -0.632679 0.718872 -0.3512
vn -0.757298 0.642514 -0.23254
vn -0.843616 0.567279 -0.0831085
vn -0.885748 0.498295 0.08691
vn -0.880824 0.440262 0.265929
vn -0.82918 0.397134 0.441752
vn -0.734336 0.371852 0.602393
vn -0.602754 0.366137 0.736907
vn -0.4434 0.380381 0.836126
vn -0.267138 0.413611 0.893288
vn -0.085977 0.463562 0.904499
vn 0.0877374 0.526832 0.868994
vn 0.242166 0.599109 0.789192
vn 0.366785 0.675467 0.670532
vn 0.453103 0.750701 0.521101
vn 0.495234 0.819685 0.351083
vn 0.490311 0.877718 0.172063
vn 0.438667 0.920846 -0.00375998
vn 0.343822 0.946128 -0.164402
vn 0.212241 0.951842 -0.298915
vn -0.0636713 1.00403 -0.168149
vn -0.188298 0.980532 -0.208566
vn -0.316388 0.945214 -0.216494
vn -0.439214 0.900478 -0.191389
vn -0.548404 0.849375 -0.134965
vn -0.636516 0.795387 -0.0510661
vn -0.697547 0.742192 0.0545892
vn -0.727337 0.693416 0.174802
vn -0.723856 0.652383 0.30138
vn -0.68734 0.62189 0.425695
vn -0.620281 0.604014 0.539277
vn -0.527244 0.599973 0.634386
vn -0.414573 0.610044 0.704539
vn -0.289946 0.63354 0.744956
vn -0.161856 0.668858 0.752882
vn -0.0390299 0.713594 0.727778
vn 0.070161 0.764698 0.671353
vn 0.158272 0.818686 0.587455
vn 0.219303 0.87188 0.4818
vn 0.249094 0.920656 0.361586
vn 0.245611 0.961689 0.235011
vn 0.209096 0.992182 0.110695
vn 0.142036 1.01006 -0.0028881
vn 0.0490008 1.0141 -0.0979968
vn -0.175877 1.00205 0.0732598
vn -0.240381 0.989888 0.0523402
vn -0.306684 0.971606 0.0482369
vn -0.370261 0.94845 0.0612317
vn -0.42678 0.921998 0.0904375
vn -0.472387 0.894053 0.133864
vn -0.503977 0.866519 0.188552
vn -0.519396 0.841273 0.250775
vn -0.517594 0.820033 0.316294
vn -0.498693 0.804249 0.380641
vn -0.463984 0.794997 0.43943
vn -0.415826 0.792906 0.48866
vn -0.357505 0.798119 0.524973
vn -0.292998 0.81028 0.545893
vn -0.226699 0.828561 0.549995
vn -0.163122 0.851717 0.537001
vn -0.106603 0.878169 0.507795
vn -0.0609966 0.906113 0.46437
vn -0.0294074 0.933646 0.409682
vn -0.0139864 0.958895 0.347455
vn -0.0157887 0.980134 0.281938
vn -0.0346885 0.995916 0.217594
vn -0.0693997 1.00517 0.158802
vn -0.117558 1.00726 0.109571
vn -0.276094 0.931816 0.309662
vt 0 0.0833333
vt 0.0208333 0
vt 0.0416667 0.0833333
vt 0.0625 0
vt 0.0833333 0.0833333
vt 0.104167 0
vt 0.125 0.0833333
vt 0.145833 0
vt 0.166667 0.0833333
vt 0.1875 0
vt 0.208333 0.0833333
vt 0.229167 0
vt 0.25 0.0833333
vt 0.270833 0
vt 0.291667 0.0833333
vt 0.3125 0
vt 0.333333 0.0833333
vt 0.354167 0
vt 0.375 0.0833333
vt 0.395833 0
vt 0.416667 0.0833333
vt 0.4375 0
vt 0.458333 0.0833333
vt 0.479167 0
vt 0.5 0.0833333
vt 0.520833 0
vt 0.541667 0.0833333
vt 0.5625 0
vt 0.583333 0.0833333
vt 0.604167 0
vt 0.625 0.0833333
vt 0.645833 0
vt 0.666667 0.0833333
vt 0.6875 0
vt 0.708333 0.0833333
vt 0.729167 0
vt 0.75 0.0833333
vt 0.770833 0
vt 0.791667 0.0833333
vt 0.8125 0
vt 0.833333 0.0833333
vt 0.854167 0
vt 0.875 0.0833333
vt 0.895833 0
vt 0.916667 0.0833333
vt 0.9375 0
vt 0.958333 0.0833333
vt 0.979167 0
vt 1 0.0833333
vt 0 0.166667
vt 0.0416667 0.166667
vt 0.0833333 0.166667
vt 0.125 0.166667
vt 0.166667 0.166667
vt 0.208333 0.166667
vt 0.25 0.166667
vt 0.291667 0.166667
vt 0.333333 0.166667
vt 0.375 0.166667
vt 0.416667 0.166667
vt 0.458333 0.166667
vt 0.5 0.166667
vt 0.541667 0.166667
vt 0.583333 0.166667
vt 0.625 0.166667
vt 0.666667 0.166667
vt 0.708333 0.166667
vt 0.75 0.166667
vt 0.791667 0.166667
vt 0.833333 0.166667
vt 0.875 0.166667
vt 0.916667 0.166667
vt 0.958333 0.166667
vt 1 0.166667
vt 0 0.25
vt 0.0416667 0.25
vt 0.0833333 0.25
vt 0.125 0.25
vt 0.166667 0.25
vt 0.208333 0.25
vt 0.25 0.25
vt 0.291667 0.25
vt 0.333333 0.25
vt 0.375 0.25
vt 0.416667 0.25
vt 0.458333 0.25
vt 0.5 0.25
vt 0.541667 0.25
vt 0.583333 0.25
vt 0.625 0.25
vt 0.666667 0.25
vt 0.708333 0.25
vt 0.75 0.25
vt 0.791667 0.25
vt 0.833333 0.25
vt 0.875 0.25
vt 0.916667 0.25
vt 0.958333 0.25
vt 1 0.25
vt 0 0.333333
vt 0.0416667 0.333333
vt 0.0833333 0.333333
vt 0.125 0.333333
vt 0.166667 0.333333
vt 0.208333 0.333333
vt 0.25 0.333333
vt 0.291667 0.333333
vt 0.333333 0.333333
vt 0.375 0.333333
vt 0.416667 0.333333
vt 0.458333 0.333333
vt 0.5 0.333333
vt 0.541667 0.333333
vt 0.583333 0.333333
vt 0.625 0.333333
vt 0.666667 0.333333
vt 0.708333 0.333333
vt 0.75 0.333333
vt 0.791667 0.333333
vt 0.833333 0.333333
vt 0.875 0.333333
vt 0.916667 0.333333
vt 0.958333 0.333333
vt 1 0.333333
vt 0 0.416667
vt 0.0416667 0.416667
vt 0.0833333 0.416667
vt 0.125 0.416667
vt 0.166667 0.416667
vt 0.208333 0.416667
vt 0.25 0.416667
vt 0.291667 0.416667
vt 0.333333 0.416667
vt 0.375 0.416667
vt 0.416667 0.416667
vt 0.458333 0.416667
vt 0.5 0.416667
vt 0.541667 0.416667
vt 0.583333 0.416667
vt 0.625 0.416667
vt 0.666667 0.416667
vt 0.708333 0.416667
vt 0.75 0.416667
vt 0.791667 0.416667
vt 0.833333 0.416667
vt 0.875 0.416667
vt 0.916667 0.416667
vt 0.958333 0.416667
vt 1 0.416667
vt 0 0.5
vt 0.0416667 0.5
vt 0.0833333 0.5
vt 0.125 0.5
vt 0.166667 0.5
vt 0.208333 0.5
vt 0.25 0.5
vt 0.291667 0.5
vt 0.333333 0.5
vt 0.375 0.5
vt 0.416667 0.5
vt 0.458333 0.5
vt 0.5 0.5
vt 0.541667 0.5
vt 0.583333 0.5
vt 0.625 0.5
vt 0.666667 0.5
vt 0.708333 0.5
vt 0.75 0.5
vt 0.791667 0.5
vt 0.833333 0.5
vt 0.875 0.5
vt 0.916667 0.5
vt 0.958333 0.5
vt 1 0.5
vt 0 0.583333
vt 0.0416667 0.583333
vt 0.0833333 0.583333
vt 0.125 0.583333
vt 0.166667 0.583333
vt 0.208333 0.583333
vt 0.25 0.583333
vt 0.291667 0.583333
vt 0.333333 0.583333
vt 0.375 0.583333
vt 0.416667 0.583333
vt 0.458333 0.583333
vt 0.5 0.583333
vt 0.541667 0.583333
vt 0.583333 0.583333
vt 0.625 0.583333
vt 0.666667 0.583333
vt 0.708333 0.583333
vt 0.75 0.583333
vt 0.791667 0.583333
vt 0.833333 0.583333
vt 0.875 0.583333
vt 0.916667 0.583333
vt 0.958333 0.583333
vt 1 0.583333
vt 0 0.666667
vt 0.0416667 0.666667
vt 0.0833333 0.666667
vt 0.125 0.666667
vt 0.166667 0.666667
vt 0.208333 0.666667
vt 0.25 0.666667
vt 0.291667 0.666667
vt 0.333333 0.666667
vt 0.375 0.666667
vt 0.416667 0.666667
vt 0.458333 0.666667
vt 0.5 0.666667
vt 0.541667 0.666667
vt 0.583333 0.666667
vt 0.625 0.666667
vt 0.666667 0.666667
vt 0.708333 0.666667
vt 0.75 0.666667
vt 0.791667 0.666667
vt 0.833333 0.666667
vt 0.875 0.666667
vt 0.916667 0.666667
vt 0.958333 0.666667
vt 1 0.666667
vt 0 0.75
vt 0.0416667 0.75
vt 0.0833333 0.75
vt 0.125 0.75
vt 0.166667 0.75
vt 0.208333 0.75
vt 0.25 0.75
vt 0.291667 0.75
vt 0.333333 0.75
vt 0.375 0.75
vt 0.416667 0.75
vt 0.458333 0.75
vt 0.5 0.75
vt 0.541667 0.75
vt 0.583333 0.75
vt 0.625 0.75
vt 0.666667 0.75
vt 0.708333 0.75
vt 0.75 0.75
vt 0.791667 0.75
vt 0.833333 0.75
vt 0.875 0.75
vt 0.916667 0.75
vt 0.958333 0.75
vt 1 0.75
vt 0 0.833333
vt 0.0416667 0.833333
vt 0.0833333 0.833333
vt 0.125 0.833333
vt 0.166667 0.833333
vt 0.208333 0.833333
vt 0.25 0.833333
vt 0.291667 0.833333
vt 0.333333 0.833333
vt 0.375 0.833333
vt 0.416667 0.833333
vt 0.458333 0.833333
vt 0.5 0.833333
vt 0.541667 0.833333
vt 0.583333 0.833333
vt 0.625 0.833333
vt 0.666667 0.833333
vt 0.708333 0.833333
vt 0.75 0.833333
vt 0.791667 0.833333
vt 0.833333 0.833333
vt 0.875 0.833333
vt 0.916667 0.833333
vt 0.958333 0.833333
vt 1 0.833333
vt 0 0.916667
vt 0.0416667 0.916667
vt 0.0833333 0.916667
vt 0.125 0.916667
vt 0.166667 0.916667
vt 0.208333 0.916667
vt 0.25 0.916667
vt 0.291667 0.916667
vt 0.333333 0.916667
vt 0.375 0.916667
vt 0.416667 0.916667
vt 0.458333 0.916667
vt 0.5 0.916667
vt 0.541667 0.916667
vt 0.583333 0.916667
vt 0.625 0.916667
vt 0.666667 0.916667
vt 0.708333 0.916667
vt 0.75 0.916667
vt 0.791667 0.916667
vt 0.833333 0.916667
vt 0.875 0.916667
vt 0.916667 0.916667
vt 0.958333 0.916667
vt 1 0.916667
vt 0.0208333 1
vt 0.0625 1
vt 0.104167 1
vt 0.145833 1
vt 0.1875 1
vt 0.229167 1
vt 0.270833 1
vt 0.3125 1
vt 0.354167 1
vt 0.395833 1
vt 0.4375 1
vt 0.479167 1
vt 0.520833 1
vt 0.5625 1
vt 0.604167 1
vt 0.645833 1
vt 0.6875 1
vt 0.729167 1
vt 0.770833 1
vt 0.8125 1
vt 0.854167 1
vt 0.895833 1
vt 0.9375 1
vt 0.979167 1
mtllib lens_enlarge.mtl
usemtl Default
g Default
f 2/1/1 1/2/2 3/3/3
f 3/3/3 1/4/2 4/5/4
f 4/5/4 1/6/2 5/7/5
f 5/7/5 1/8/2 6/9/6
f 6/9/6 1/10/2 7/11/7
f 7/11/7 1/12/2 8/13/8
f 8/13/8 1/14/2 9/15/9
f 9/15/9 1/16/2 10/17/10
f 10/17/10 1/18/2 11/19/11
f 11/19/11 1/20/2 12/21/12
f 12/21/12 1/22/2 13/23/13
f 13/23/13 1/24/2 14/25/14
f 14/25/14 1/26/2 15/27/15
f 15/27/15 1/28/2 16/29/16
f 16/29/16 1/30/2 17/31/17
f 17/31/17 1/32/2 18/33/18
f 18/33/18 1/34/2 19/35/19
f 19/35/19 1/36/2 20/37/20
f 20/37/20 1/38/2 21/39/21
f 21/39/21 1/40/2 22/41/22
f 22/41/22 1/42/2 23/43/23
f 23/43/23 1/44/2 24/45/24
f 24/45/24 1/46/2 25/47/25
f 25/47/25 1/48/2 2/49/1
f 26/50/26 2/1/1 3/3/3 27/51/27
f 27/51/27 3/3/3 4/5/4 28/52/28
f 28/52/28 4/5/4 5/7/5 29/53/29
f 29/53/29 5/7/5 6/9/6 30/54/30
f 30/54/30 6/9/6 7/11/7 31/55/31
f 31/55/31 7/11/7 8/13/8 32/56/32
f 32/56/32 8/13/8 9/15/9 33/57/33
f 33/57/33 9/15/9 10/17/10 34/58/34
f 34/58/34 10/17/10 11/19/11 35/59/35
f 35/59/35 11/19/11 12/21/12 36/60/36
f 36/60/36 12/21/12 13/23/13 37/61/37
f 37/61/37 13/23/13 14/25/14 38/62/38
f 38/62/38 14/25/14 15/27/15 39/63/39
f 39/63/39 15/27/15 16/29/16 40/64/40
f 40/64/40 16/29/16 17/31/17 41/65/41
f 41/65/41 17/31/17 18/33/18 42/66/42
f 42/66/42 18/33/18 19/35/19 43/67/43
f 43/67/43 19/35/19 20/37/20 44/68/44
f 44/68/44 20/37/20 21/39/21 45/69/45
f 45/69/45 21/39/21 22/41/22 46/70/46
f 46/70/46 22/41/22 23/43/23 47/71/47
f 47/71/47 23/43/23 24/45/24 48/72/48
f 48/72/48 24/45/24 25/47/25 49/73/49
f 49/73/49 25/47/25 2/49/1 26/74/26
f 50/75/50 26/50/26 27/51/27 51/76/51
f 51/76/51 27/51/27 28/52/28 52/77/52
f 52/77/52 28/52/28 29/53/29 53/78/53
f 53/78/53 29/53/29 30/54/30 54/79/54
f 54/79/54 30/54/30 31/55/31 55/80/55
f 55/80/55 31/55/31 32/56/32 56/81/56
f 56/81/56 32/56/32 33/57/33 57/82/57
f 57/82/57 33/57/33 34/58/34 58/83/58
f 58/83/58 34/58/34 35/59/35 59/84/59
f 59/84/59 35/59/35 36/60/36 60/85/60
f 60/85/60 36/60/36 37/61/37 61/86/61
f 61/86/61 37/61/37 38/62/38 62/87/62
f 62/87/62 38/62/38 39/63/39 63/88/63
f 63/88/63 39/63/39 40/64/40 64/89/64
f 64/89/64 40/64/40 41/65/41 65/90/65
f 65/90/65 41/65/41 42/66/42 66/91/66
f 66/91/66 42/66/42 43/67/43 67/92/67
f 67/92/67 43/67/43 44/68/44 68/93/68
f 68/93/68 44/68/44 45/69/45 69/94/69
f 69/94/69 45/69/45 46/70/46 70/95/70
f 70/95/70 46/70/46 47/71/47 71/96/71
f 71/96/71 47/71/47 48/72/48 72/97/72
f 72/97/72 48/72/48 49/73/49 73/98/73
f 73/98/73 49/73/49 26/74/26 50/99/50
f 74/100/74 50/75/50 51/76/51 75/101/75
f 75/101/75 51/76/51 52/77/52 76/102/76
f 76/102/76 52/77/52 53/78/53 77/103/77
f 77/103/77 53/78/53 54/79/54 78/104/78
f 78/104/78 54/79/54 55/80/55 79/105/79
f 79/105/79 55/80/55 56/81/56 80/106/80
f 80/106/80 56/81/56 57/82/57 81/107/81
f 81/107/81 57/82/57 58/83/58 82/108/82
f 82/108/82 58/83/58 59/84/59 83/109/83
f 83/109/83 59/84/59 60/85/60 84/110/84
f 84/110/84 60/85/60 61/86/61 85/111/85
f 85/111/85 61/86/61 62/87/62 86/112/86
f 86/112/86 62/87/62 63/88/63 87/113/87
f 87/113/87 63/88/63 64/89/64 88/114/88
f 88/114/88 64/89/64 65/90/65 89/115/89
f 89/115/89 65/90/65 66/91/66 90/116/90
f 90/116/90 66/91/66 67/92/67 91/117/91
f 91/117/91 67/92/67 68/93/68 92/118/92
f 92/118/92 68/93/68 69/94/69 93/119/93
f 93/119/93 69/94/69 70/95/70 94/120/94
f 94/120/94 70/95/70 71/96/71 95/121/95
f 95/121/95 71/96/71 72/97/72 96/122/96
f 96/122/96 72/97/72 73/98/73 97/123/97
f 97/123/97 73/98/73 50/99/50 74/124/74
f 98/125/98 74/100/74 75/101/75 99/126/99
f 99/126/99 75/101/75 76/102/76 100/127/100
f 100/127/100 76/102/76 77/103/77 101/128/101
f 101/128/101 77/103/77 78/104/78 102/129/102
f 102/129/102 78/104/78 79/105/79 103/130/103
f 103/130/103 79/105/79 80/106/80 104/131/104
f 104/131/104 80/106/80 81/107/81 105/132/105
f 105/132/105 81/107/81 82/108/82 106/133/106
f 106/133/106 82/108/82 83/109/83 107/134/107
f 107/134/107 83/109/83 84/110/84 108/135/108
f 108/135/108 84/110/84 85/111/85 109/136/109
f 109/136/109 85/111/85 86/112/86 110/137/110
f 110/137/110 86/112/86 87/113/87 111/138/111
f 111/138/111 87/113/87 88/114/88 112/139/112
f 112/139/112 88/114/88 89/115/89 113/140/113
f 113/140/113 89/115/89 90/116/90 114/141/114
f 114/141/114 90/116/90 91/117/91 115/142/115
f 115/142/115 91/117/91 92/118/92 116/143/116
f 116/143/116 92/118/92 93/119/93 117/144/117
f 117/144/117 93/119/93 94/120/94 118/145/118
f 118/145/118 94/120/94 95/121/95 119/146/119
f 119/146/119 95/121/95 96/122/96 120/147/120
f 120/147/120 96/122/96 97/123/97 121/148/121
f 121/148/121 97/123/97 74/124/74 98/149/98
f 122/150/122 98/125/98 99/126/99 123/151/123
f 123/151/123 99/126/99 100/127/100 124/152/124
f 124/152/124 100/127/100 101/128/101 125/153/125
f 125/153/125 101/128/101 102/129/102 126/154/126
f 126/154/126 102/129/102 103/130/103 127/155/127
f 127/155/127 103/130/103 104/131/104 128/156/128
f 128/156/128 104/131/104 105/132/105 129/157/129
f 129/157/129 105/132/105 106/133/106 130/158/130
f 130/158/130 106/133/106 107/134/107 131/159/131
f 131/159/131 107/134/107 108/135/108 132/160/132
f 132/160/132 108/135/108 109/136/109 133/161/133
f 133/161/133 109/136/109 110/137/110 134/162/134
f 134/162/134 110/137/110 111/138/111 135/163/135
f 135/163/135 111/138/111 112/139/112 136/164/136
f 136/164/136 112/139/112 113/140/113 137/165/137
f 137/165/137 113/140/113 114/141/114 138/166/138
f 138/166/138 114/141/114 115/142/115 139/167/139
f 139/167/139 115/142/115 116/143/116 140/168/140
f 140/168/140 116/143/116 117/144/117 141/169/141
f 141/169/141 117/144/117 118/145/118 142/170/142
f 142/170/142 118/145/118 119/146/119 143/171/143
f 143/171/143 119/146/119 120/147/120 144/172/144
f 144/172/144 120/147/120 121/148/121 145/173/145
f 145/173/145 121/148/121 98/149/98 122/174/122
f 146/175/146 122/150/122 123/151/123 147/176/147
f 147/176/147 123/151/123 124/152/124 148/177/148
f 148/177/148 124/152/124 125/153/125 149/178/149
f 149/178/149 125/153/125 126/154/126 150/179/150
f 150/179/150 126/154/126 127/155/127 151/180/151
f 151/180/151 127/155/127 128/156/128 152/181/152
f 152/181/152 128/156/128 129/157/129 153/182/153
f 153/182/153 129/157/129 130/158/130 154/183/154
f 154/183/154 130/158/130 131/159/131 155/184/155
f 155/184/155 131/159/131 132/160/132 156/185/156
f 156/185/156 132/160/132 133/161/133 157/186/157
f 157/186/157 133/161/133 134/162/134 158/187/158
f 158/187/158 134/162/134 135/163/135 159/188/159
f 159/188/159 135/163/135 136/164/136 160/189/160
f 160/189/160 136/164/136 137/165/137 161/190/161
f 161/190/161 137/165/137 138/166/138 162/191/162
f 162/191/162 138/166/138 139/167/139 163/192/163
f 163/192/163 139/167/139 140/168/140 164/193/164
f 164/193/164 140/168/140 141/169/141 165/194/165
f 165/194/165 141/169/141 142/170/142 166/195/166
f 166/195/166 142/170/142 143/171/143 167/196/167
f 167/196/167 143/171/143 144/172/144 168/197/168
f 168/197/168 144/172/144 145/173/145 169/198/169
f 169/198/169 145/173/145 122/174/122 146/199/146
f 170/200/170 146/175/146 147/176/147 171/201/171
f 171/201/171 147/176/147 148/177/148 172/202/172
f 172/202/172 148/177/148 149/178/149 173/203/173
f 173/203/173 149/178/149 150/179/150 174/204/174
f 174/204/174 150/179/150 151/180/151 175/205/175
f 175/205/175 151/180/151 152/181/152 176/206/176
f 176/206/176 152/181/152 153/182/153 177/207/177
f 177/207/177 153/182/153 154/183/154 178/208/178
f 178/208/178 154/183/154 155/184/155 179/209/179
f 179/209/179 155/184/155 156/185/156 180/210/180
f 180/210/180 156/185/156 157/186/157 181/211/181
f 181/211/181 157/186/157 158/187/158 182/212/182
f 182/212/182 158/187/158 159/188/159 183/213/183
f 183/213/183 159/188/159 160/189/160 184/214/184
f 184/214/184 160/189/160 161/190/161 185/215/185
f 185/215/185 161/190/161 162/191/162 186/216/186
f 186/216/186 162/191/162 163/192/163 187/217/187
f 187/217/187 163/192/163 164/193/164 188/218/188
f 188/218/188 164/193/164 165/194/165 189/219/189
f 189/219/189 165/194/165 166/195/166 190/220/190
f 190/220/190 166/195/166 167/196/167 191/221/191
f 191/221/191 167/196/167 168/197/168 192/222/192
f 192/222/192 168/197/168 169/198/169 193/223/193
f 193/223/193 169/198/169 146/199/146 170/224/170
f 194/225/194 170/200/170 171/201/171 195/226/195
f 195/226/195 171/201/171 172/202/172 196/227/196
f 196/227/196 172/202/172 173/203/173 197/228/197
f 197/228/197 173/203/173 174/204/174 198/229/198
f 198/229/198 174/204/174 175/205/175 199/230/199
f 199/230/199 175/205/175 176/206/176 200/231/200
f 200/231/200 176/206/176 177/207/177 201/232/201
f 201/232/201 177/207/177 178/208/178 202/233/202
f 202/233/202 178/208/178 179/209/179 203/234/203
f 203/234/203 179/209/179 180/210/180 204/235/204
f 204/235/204 180/210/180 181/211/181 205/236/205
f 205/236/205 181/211/181 182/212/182 206/237/206
f 206/237/206 182/212/182 183/213/183 207/238/207
f 207/238/207 183/213/183 184/214/184 208/239/208
f 208/239/208 184/214/184 185/215/185 209/240/209
f 209/240/209 185/215/185 186/216/186 210/241/210
f 210/241/210 186/216/186 187/217/187 211/242/211
f 211/242/211 187/217/187 188/218/188 212/243/212
f 212/243/212 188/218/188 189/219/189 213/244/213
f 213/244/213 189/219/189 190/220/190 214/245/214
f 214/245/214 190/220/190 191/221/191 215/246/215
f 215/246/215 191/221/191 192/222/192 216/247/216
f 216/247/216 192/222/192 193/223/193 217/248/217
f 217/248/217 193/223/193 170/224/170 194/249/194
f 218/250/218 194/225/194 195/226/195 219/251/219
f 219/251/219 195/226/195 196/227/196 220/252/220
f 220/252/220 196/227/196 197/228/197 221/253/221
f 221/253/221 197/228/197 198/229/198 222/254/222
f 222/254/222 198/229/198 199/230/199 223/255/223
f 223/255/223 199/230/199 200/231/200 224/256/224
f 224/256/224 200/231/200 201/232/201 225/257/225
f 225/257/225 201/232/201 202/233/202 226/258/226
f 226/258/226 202/233/202 203/234/203 227/259/227
f 227/259/227 203/234/203 204/235/204 228/260/228
f 228/260/228 204/235/204 205/236/205 229/261/229
f 229/261/229 205/236/205 206/237/206 230/262/230
f 230/262/230 206/237/206 207/238/207 231/263/231
f 231/263/231 207/238/207 208/239/208 232/264/232
f 232/264/232 208/239/208 209/240/209 233/265/233
f 233/265/233 209/240/209 210/241/210 234/266/234
f 234/266/234 210/241/210 211/242/211 235/267/235
f 235/267/235 211/242/211 212/243/212 236/268/236
f 236/268/236 212/243/212 213/244/213 237/269/237
f 237/269/237 213/244/213 214/245/214 238/270/238
f 238/270/238 214/245/214 215/246/215 239/271/239
f 239/271/239 215/246/215 216/247/216 240/272/240
f 240/272/240 216/247/216 217/248/217 241/273/241
f 241/273/241 217/248/217 194/249/194 218/274/218
f 242/275/242 218/250/218 219/251/219 243/276/243
f 243/276/243 219/251/219 220/252/220 244/277/244
f 244/277/244 220/252/220 221/253/221 245/278/245
f 245/278/245 221/253/221 222/254/222 246/279/246
f 246/279/246 222/254/222 223/255/223 247/280/247
f 247/280/247 223/255/223 224/256/224 248/281/248
f 248/281/248 224/256/224 225/257/225 249/282/249
f 249/282/249 225/257/225 226/258/226 250/283/250
f 250/283/250 226/258/226 227/259/227 251/284/251
f 251/284/251 227/259/227 228/260/228 252/285/252
f 252/285/252 228/260/228 229/261/229 253/286/253
f 253/286/253 229/261/229 230/262/230 254/287/254
f 254/287/254 230/262/230 231/263/231 255/288/255
f 255/288/255 231/263/231 232/264/232 256/289/256
f 256/289/256 232/264/232 233/265/233 257/290/257
f 257/290/257 233/265/233 234/266/234 258/291/258
f 258/291/258 234/266/234 235/267/235 259/292/259
f 259/292/259 235/267/235 236/268/236 260/293/260
f 260/293/260 236/268/236 237/269/237 261/294/261
f 261/294/261 237/269/237 238/270/238 262/295/262
f 262/295/262 238/270/238 239/271/239 263/296/263
f 263/296/263 239/271/239 240/272/240 264/297/264
f 264/297/264 240/272/240 241/273/241 265/298/265
f 265/298/265 241/273/241 218/274/218 242/299/242
f 242/275/242 243/276/243 266/300/266
f 243/276/243 244/277/244 266/301/266
f 244/277/244 245/278/245 266/302/266
f 245/278/245 246/279/246 266/303/266
f 246/279/246 247/280/247 266/304/266
f 247/280/247 248/281/248 266/305/266
f 248/281/248 249/282/249 266/306/266
f 249/282/249 250/283/250 266/307/266
f 250/283/250 251/284/251 266/308/266
f 251/284/251 252/285/252 266/309/266
f 252/285/252 253/286/253 266/310/266
f 253/286/253 254/287/254 266/311/266
f 254/287/254 255/288/255 266/312/266
f 255/288/255 256/289/256 266/313/266
f 256/289/256 257/290/257 266/314/266
f 257/290/257 258/291/258 266/315/266
f 258/291/258 259/292/259 266/316/266
f 259/292/259 260/293/260 266/317/266
f 260/293/260 261/294/261 266/318/266
f 261/294/261 262/295/262 266/319/266
f 262/295/262 263/296/263 266/320/266
f 263/296/263 264/297/264 266/321/266
f 264/297/264 265/298/265 266/322/266
f 265/298/265 242/299/242 266/323/266
